<?xml version="1.0" encoding="utf-8"?>
<!-- Generator: Adobe Illustrator 18.0.0, SVG Export Plug-In . SVG Version: 6.00 Build 0)  -->
<!DOCTYPE svg PUBLIC "-//W3C//DTD SVG 1.1//EN" "http://www.w3.org/Graphics/SVG/1.1/DTD/svg11.dtd">
<svg version="1.1" id="Layer_1" xmlns:sketch="http://www.bohemiancoding.com/sketch/ns"
	 xmlns="http://www.w3.org/2000/svg" xmlns:xlink="http://www.w3.org/1999/xlink" x="0px" y="0px" viewBox="229 434 300 75"
	 enable-background="new 229 434 300 75" xml:space="preserve">
<g>
	<path d="M235.8,487.2c0,0,3,3.8,7.7,3.8c2.4,0,4.4-1.1,4.4-3.3c0-4.6-13.8-4.1-13.8-12.2c0-4.9,4.3-7.1,9.4-7.1
		c3.1,0,8.3,1,8.3,4.9l0,0c0,1.3-1.1,2.4-2.4,2.4h-1.9v-1.2c0-1.5-2.3-2.2-3.8-2.2c-2.9,0-4.7,1-4.7,3c0,4.8,13.8,3.8,13.8,12.2
		c0,4.5-4,7.4-9.3,7.4c-2.5,0-4.6-0.6-6.1-1.4C234.8,492.3,234.1,489.3,235.8,487.2L235.8,487.2z"/>
	<path d="M260.5,500.6c2,0,3.5-1.4,4.5-3.7l1.1-2.8l-8.7-20.1c-0.4-0.8-0.8-1-1.6-1h-0.6V469h2.9c2,0,2.8,0.6,3.6,2.6l5.8,14.3
		c0.5,1.3,0.9,3.1,0.9,3.1h0.1c0,0,0.4-1.8,0.9-3.1l5.3-14.3c0.8-2,1.6-2.6,3.7-2.6h2.9v4.2h-0.6c-0.8,0-1.2,0.2-1.6,1l-10,24.7
		c-1.6,3.9-4.6,6-8.2,6c-3.8,0-6-2.5-6-2.5l0,0c0.9-1.6,2.8-2.4,4.5-1.9C259.7,500.5,260.1,500.6,260.5,500.6z"/>
	<path d="M286.1,474.3c0-0.8-0.4-1.1-1.1-1.1h-4.5V469h7.1c2.1,0,3.2,1,3.2,2.8v1c0,0.8-0.1,1.5-0.1,1.5h0.1c1-2.2,4-5.8,9.5-5.8
		c6,0,8.7,3.2,8.7,9.7v11c0,0.8,0.4,1.1,1.1,1.1h2l0,0c0,2.3-1.9,4.2-4.2,4.2h-0.6c-1.8,0-3.2-1.4-3.2-3.2v-11.9
		c0-3.6-0.7-6.4-4.8-6.4c-3.9,0-7,2.5-8,6.2c-0.4,1-0.5,2.2-0.5,3.4v7c0,2.7-2.2,4.9-4.9,4.9l0,0V474.3z"/>
	<path d="M328.6,472.6c-5,0-8.7,3.7-8.7,9.1c0,5.8,4.2,9,8.9,9c4.8,0,7.9-3.5,7.9-3.5l0,0c1.4,2.3,0.5,5.2-1.9,6.4
		c-1.6,0.8-3.7,1.4-6.3,1.4c-8,0-13.5-5.6-13.5-13.3c0-7.5,5.5-13.3,13.6-13.3"/>
	<path d="M344.1,474.3c0-0.8-0.4-1.1-1.1-1.1h-2.1l0,0c0-2.3,1.9-4.2,4.2-4.2h0.5c2.2,0,3.2,1,3.2,2.8v1c0,0.8-0.1,1.5-0.1,1.5h0.1
		c1.2-3,4.7-5.8,8.7-5.8c4.3,0,6.8,1.9,7.6,5.8h0.1c1.4-3,4.9-5.8,9-5.8c5.7,0,8.4,3.2,8.4,9.7v11c0,0.8,0.4,1.1,1.1,1.1h2.1l0,0
		c0,2.3-1.9,4.2-4.2,4.2h-0.6c-1.8,0-3.2-1.4-3.2-3.2v-12c0-3.6-0.7-6.4-4.5-6.4c-3.5,0-6.2,3.1-7.1,6.5c-0.2,1.1-0.4,2.2-0.4,3.5
		v11.6h-4.9v-15.2c0-3.3-0.5-6.4-4.4-6.4c-3.7,0-6.3,3.1-7.3,6.7c-0.2,1-0.4,2.1-0.4,3.2v11.6h-4.9V474.3z"/>
	<path d="M401.2,468.4c7.1,0,10.9,5.3,10.9,11.9c0,0.6-0.1,2-0.1,2h-18.5c0.3,5.4,4.2,8.5,8.7,8.5c1.7,0,3.2-0.5,4.4-1
		c1.8-0.8,4-0.2,5.1,1.5l0,0c0,0-3.8,3.7-9.8,3.7c-8,0-13.5-5.8-13.5-13.3C388.5,473.6,394,468.4,401.2,468.4z M407.1,478.7
		c-0.1-4.2-2.8-6.5-6-6.5c-3.7,0-6.7,2.2-7.5,6.5H407.1z"/>
	<path d="M427.6,468.4c5.9,0,7.8,3.9,7.8,3.9h0.1c0,0-0.1-0.8-0.1-1.7v-6.4c0-0.8-0.4-1.1-1.1-1.1h-2V459h4.8c1.8,0,3.2,1.4,3.2,3.2
		v26.9c0,0.8,0.4,1.1,1.1,1.1h2l0,0c0,2.3-1.9,4.2-4.2,4.2h-0.5c-2.2,0-3.1-1-3.1-2.7c0-0.8,0.1-1.3,0.1-1.3h-0.1
		c0,0-2.1,4.6-8.3,4.6c-6.9,0-11.2-5.4-11.2-13.3C416.1,473.6,420.9,468.4,427.6,468.4z M435.5,481.6c0-4.5-2.4-9-7.2-9
		c-4,0-7.3,3.3-7.3,9.1c0,5.5,3,9.1,7.2,9.1C432,490.7,435.5,488.1,435.5,481.6z"/>
	<path d="M449,474.3c0-0.8-0.4-1.1-1.1-1.1h-2.1V469h4.8c1.8,0,3.2,1.4,3.2,3.2v16.9c0,0.8,0.4,1.1,1.1,1.1h2.1l0,0
		c0,2.3-1.9,4.2-4.2,4.2h-0.6c-1.8,0-3.2-1.4-3.2-3.2V474.3z M449.1,459h4.4v5.1h-4.4V459z"/>
	<path d="M475.4,478.6h1.1v-0.2c0-4.5-1.7-6.1-5.6-6.1c-1.2,0-4.2,0.3-4.2,2v1.4h-4.5v-2.5c0-4.2,6.3-4.8,8.8-4.8
		c8.2,0,10.4,4.3,10.4,9.9v10.8c0,0.8,0.4,1.1,1.1,1.1h2v4.2h-4.5c-2.2,0-3.2-1.1-3.2-2.9c0-0.8,0.1-1.5,0.1-1.5h-0.1c0,0-2,5-8.1,5
		c-4.3,0-8.6-2.6-8.6-7.7C460.1,479.1,471.1,478.6,475.4,478.6z M469.8,491c4.1,0,6.8-4.3,6.8-8.1v-0.9h-1.2
		c-3.7,0-10.3,0.2-10.3,4.9C465,489,466.6,491,469.8,491z"/>
</g>
<path fill="#F9CE1D" d="M524.7,470.4c0-9.9-8-17.8-17.9-17.8c-4,0-7.7,1.3-10.7,3.6c0,9.9,8,17.8,17.9,17.8
	C518,474,521.7,472.7,524.7,470.4z"/>
<path fill="#F9CE1D" d="M517.6,456.2c-3-2.2-6.7-3.6-10.7-3.6c-9.9,0-17.8,8-17.9,17.8c3,2.2,6.7,3.6,10.7,3.6
	C509.6,474,517.6,466,517.6,456.2z"/>
<path fill="#FB8C00" d="M506.9,472.5c6.3-2.8,10.7-9,10.7-16.4c0-7.3-4.4-13.6-10.7-16.4c-6.3,2.8-10.7,9-10.7,16.4
	C496.1,463.5,500.6,469.7,506.9,472.5z"/>
</svg>
