<?xml version="1.0" encoding="utf-8"?>
<!-- Generator: Adobe Illustrator 18.0.0, SVG Export Plug-In . SVG Version: 6.00 Build 0)  -->
<!DOCTYPE svg PUBLIC "-//W3C//DTD SVG 1.1//EN" "http://www.w3.org/Graphics/SVG/1.1/DTD/svg11.dtd">
 <svg version="1.1" id="Capa_1" xmlns="http://www.w3.org/2000/svg" xmlns:xlink="http://www.w3.org/1999/xlink" x="0px" y="0px"
   width="40px" height="40px" viewBox="0 0 22.646 36" style="enable-background:new 0 0 22.646 36;" xml:space="preserve">
<path d="M18.906,0.968L19.875,0c3.695,3.695,3.695,9.709,0,13.404l-0.968-0.967C22.069,9.275,22.069,4.129,18.906,0.968z
   M17.233,10.764l0.968,0.969c2.772-2.772,2.772-7.287,0-10.059l-0.968,0.967C19.472,4.881,19.472,8.523,17.233,10.764z
   M16.474,10.005c1.82-1.819,1.82-4.782-0.002-6.604l-0.967,0.968c1.289,1.288,1.289,3.382,0,4.669L16.474,10.005z M3.739,12.438
  C0.577,9.275,0.578,4.129,3.74,0.968L2.772,0c-3.696,3.695-3.696,9.709,0,13.404L3.739,12.438z M4.445,11.732l0.969-0.971
  c-2.239-2.238-2.239-5.882,0-8.121L4.445,1.673C1.673,4.445,1.673,8.959,4.445,11.732z M6.173,10.005l0.969-0.969
  c-1.287-1.287-1.287-3.382,0-4.669L6.173,3.4C4.353,5.223,4.353,8.186,6.173,10.005z M18.638,19.486l-0.104,0.146l0.648,0.839
  l0.375-0.232c-0.082-0.028-0.161-0.081-0.225-0.161C19.335,20.077,18.835,19.73,18.638,19.486z M22.481,24.842
  C22.481,31.006,17.487,36,11.325,36C5.162,36,0.164,31.006,0.164,24.842c0-5.578,4.101-10.188,9.448-11.014l1.469-4.564
  c-0.929-0.121-1.65-0.906-1.65-1.869c0-1.043,0.848-1.892,1.894-1.892s1.894,0.849,1.894,1.892c0,0.963-0.723,1.748-1.651,1.869
  l1.469,4.563C18.384,14.652,22.481,19.264,22.481,24.842z M3.95,17.934c0.098-0.048,0.193-0.088,0.289-0.115
  c0,0,0.934-0.096,0.542-0.682C4.491,17.387,4.212,17.65,3.95,17.934z M5.485,26.062c0,0-0.148-0.49-0.896-0.49
  c0,0-0.447-0.491-0.85-0.491c0,0-0.146-1.373-0.896-1.076c0,0-0.101-0.544-0.399-0.491c0,0-0.195-0.541-0.545-0.393l-0.401-0.247
  c0,0-0.035,0.062-0.094,0.16c-0.098,0.562-0.15,1.139-0.15,1.725c0,2.853,1.198,5.425,3.111,7.247
  c0.003-0.086,0.023-0.17,0.075-0.247c0,0,0.198-0.394-0.054-0.735c0,0,0.252-0.346,0.252-0.789c0,0-0.252-0.781,0.396-0.881
  c0,0,0.898,0,0.449-1.571c0,0-0.049-0.44,0.301-0.882C5.786,26.898,6.134,25.964,5.485,26.062z M6.087,16.199
  c-0.449,0.27-0.873,0.576-1.271,0.912c0.229,0.023,1.18,0.093,1.242-0.449L6.087,16.199z M19.613,20.254
  c0.188,0.048,0.394-0.009,0.543-0.07c-1.522-2.949-4.467-5.051-7.929-5.383c-0.799,0.78,0.184,1.104,0.184,1.104
  c0.35,0.244,1.092-0.198,1.092-0.198c0.303,0.342-0.847,0.838-0.847,0.838c-0.646,0.046-1.144,0.392-1.144,0.392
  c-0.299-0.441-0.6-0.101-0.6-0.101c-0.246,0.294,0.35,0.446,0.35,0.446c0.399,0.095,0.301,0.342,0.146,0.486
  c-0.146,0.146-0.793,0-0.793,0c-0.35,0.197-0.102,0.885-0.102,0.885h0.3c0.993,0.291,1.047-0.442,1.047-0.442
  c0.297,0,0.399-0.491,0.399-0.491c0.25,0.247,0.847-0.146,0.847-0.146c0.05,0.196,0.347,0.489,0.347,0.489
  c0.449,0.147,0.549,0.347,0.549,0.347c-0.449,0.097-0.051,0.293-0.051,0.293c0.602-0.247,0.148-0.589,0.148-0.589
  c-1.143-0.54-0.646-0.688-0.646-0.688c0.2,0.344,0.999,0.49,0.999,0.49c0.101,0.639,0.397,0.738,0.397,0.738
  c0.349,0.146,0.447-0.148,0.447-0.148c-0.349-0.097-0.4-0.393-0.4-0.393c-0.098-0.295,0.351-0.1,0.351-0.1
  c0.399,0.59,1.247,0.541,1.247,0.541c0.545-0.05,0.396,0.932,0.396,0.932c-0.598,0.396-1.745-0.295-1.745-0.295
  c0.102,0.347-0.347,0.393-0.347,0.393c-0.451-0.537-1.146-0.293-1.146-0.293c0.149-0.244-0.103-0.637-0.103-0.637
  c-0.396-0.1-1.041,0.098-1.041,0.098c-0.5,0.193-1.447,0.244-1.447,0.244c-0.447,0-0.746,0.887-0.746,0.887
  c-0.997,0.438-1.096,1.322-1.096,1.322c0,0.542-0.101,1.08-0.101,1.08c-0.35,0.539,0.646,1.129,0.646,1.129
  c0.602,1.128,1.347,0.641,1.347,0.641c0.599,0.242,1.896-0.246,1.896-0.246c0.148,0.488,0.844,0.344,0.844,0.344
  c0.248,0.146,0.15,0.639,0.15,0.639c-0.349,0.586,0.299,1.129,0.299,1.129c0.996,1.128,0.345,1.423,0.345,1.423
  c-0.693,0.687-0.242,1.275-0.242,1.275c0.494,1.083,0.494,2.005,0.494,2.005c1.694,0.245,2.292-1.023,2.292-1.023
  c0.547,0,0.547-0.49,0.547-0.49c0-0.59,0.352-0.832,0.352-0.832c0.797-0.541,0.648-1.623,0.648-1.623
  c-0.1-0.637,0.146-1.225,0.146-1.225c0.945-1.08,0.897-2.699,0.897-2.699c-0.397,0.196-0.647,0.047-0.647,0.047
  c-0.896-0.885-1.992-2.799-1.992-2.799c1.048,0.442,1.895,2.504,1.895,2.504c0.6-0.295,0.794-0.834,0.794-0.834
  C20.406,21.125,19.767,20.41,19.613,20.254z"/>
<g>
</g>
<g>
</g>
<g>
</g>
<g>
</g>
<g>
</g>
<g>
</g>
<g>
</g>
<g>
</g>
<g>
</g>
<g>
</g>
<g>
</g>
<g>
</g>
<g>
</g>
<g>
</g>
<g>
</g>
</svg> 
